<mxfile host="app.diagrams.net" modified="2023-10-16T02:44:08.659Z" agent="Mozilla/5.0 (Windows NT 10.0; Win64; x64; rv:109.0) Gecko/20100101 Firefox/118.0" etag="jwGrU7lroEzgXWRsVKxu" version="22.0.4" type="github">
  <diagram id="C5RBs43oDa-KdzZeNtuy" name="Page-1">
    <mxGraphModel dx="880" dy="470" grid="1" gridSize="10" guides="1" tooltips="1" connect="1" arrows="1" fold="1" page="1" pageScale="1" pageWidth="827" pageHeight="1169" math="0" shadow="0">
      <root>
        <mxCell id="WIyWlLk6GJQsqaUBKTNV-0" />
        <mxCell id="WIyWlLk6GJQsqaUBKTNV-1" parent="WIyWlLk6GJQsqaUBKTNV-0" />
        <mxCell id="__YgoBIEPkl2ILwdyT14-9" style="edgeStyle=orthogonalEdgeStyle;rounded=0;orthogonalLoop=1;jettySize=auto;html=1;exitX=0.5;exitY=1;exitDx=0;exitDy=0;exitPerimeter=0;entryX=0.5;entryY=0;entryDx=0;entryDy=0;" edge="1" parent="WIyWlLk6GJQsqaUBKTNV-1" source="__YgoBIEPkl2ILwdyT14-0" target="__YgoBIEPkl2ILwdyT14-1">
          <mxGeometry relative="1" as="geometry" />
        </mxCell>
        <mxCell id="__YgoBIEPkl2ILwdyT14-0" value="start" style="strokeWidth=2;html=1;shape=mxgraph.flowchart.terminator;whiteSpace=wrap;" vertex="1" parent="WIyWlLk6GJQsqaUBKTNV-1">
          <mxGeometry x="350" y="30" width="100" height="60" as="geometry" />
        </mxCell>
        <mxCell id="__YgoBIEPkl2ILwdyT14-10" style="edgeStyle=orthogonalEdgeStyle;rounded=0;orthogonalLoop=1;jettySize=auto;html=1;exitX=0.5;exitY=1;exitDx=0;exitDy=0;" edge="1" parent="WIyWlLk6GJQsqaUBKTNV-1" source="__YgoBIEPkl2ILwdyT14-1">
          <mxGeometry relative="1" as="geometry">
            <mxPoint x="400" y="240" as="targetPoint" />
          </mxGeometry>
        </mxCell>
        <mxCell id="__YgoBIEPkl2ILwdyT14-1" value="integer bilangan" style="shape=internalStorage;whiteSpace=wrap;html=1;dx=15;dy=15;rounded=1;arcSize=8;strokeWidth=2;" vertex="1" parent="WIyWlLk6GJQsqaUBKTNV-1">
          <mxGeometry x="325" y="130" width="150" height="70" as="geometry" />
        </mxCell>
        <mxCell id="__YgoBIEPkl2ILwdyT14-2" value="input bilangan" style="shape=parallelogram;html=1;strokeWidth=2;perimeter=parallelogramPerimeter;whiteSpace=wrap;rounded=1;arcSize=12;size=0.23;" vertex="1" parent="WIyWlLk6GJQsqaUBKTNV-1">
          <mxGeometry x="330" y="240" width="120" height="60" as="geometry" />
        </mxCell>
        <mxCell id="__YgoBIEPkl2ILwdyT14-14" style="edgeStyle=orthogonalEdgeStyle;rounded=0;orthogonalLoop=1;jettySize=auto;html=1;exitX=1;exitY=0.5;exitDx=0;exitDy=0;exitPerimeter=0;entryX=0.75;entryY=0;entryDx=0;entryDy=0;" edge="1" parent="WIyWlLk6GJQsqaUBKTNV-1" source="__YgoBIEPkl2ILwdyT14-3" target="__YgoBIEPkl2ILwdyT14-5">
          <mxGeometry relative="1" as="geometry" />
        </mxCell>
        <mxCell id="__YgoBIEPkl2ILwdyT14-3" value="bilangan med 2= 0" style="strokeWidth=2;html=1;shape=mxgraph.flowchart.decision;whiteSpace=wrap;" vertex="1" parent="WIyWlLk6GJQsqaUBKTNV-1">
          <mxGeometry x="265" y="340" width="250" height="100" as="geometry" />
        </mxCell>
        <mxCell id="__YgoBIEPkl2ILwdyT14-5" value="output bilangan &amp;amp; bilangan genap" style="shape=parallelogram;html=1;strokeWidth=2;perimeter=parallelogramPerimeter;whiteSpace=wrap;rounded=1;arcSize=12;size=0.23;" vertex="1" parent="WIyWlLk6GJQsqaUBKTNV-1">
          <mxGeometry x="475" y="510" width="250" height="60" as="geometry" />
        </mxCell>
        <mxCell id="__YgoBIEPkl2ILwdyT14-6" value="end" style="strokeWidth=2;html=1;shape=mxgraph.flowchart.terminator;whiteSpace=wrap;" vertex="1" parent="WIyWlLk6GJQsqaUBKTNV-1">
          <mxGeometry x="320" y="620" width="100" height="60" as="geometry" />
        </mxCell>
        <mxCell id="__YgoBIEPkl2ILwdyT14-12" style="edgeStyle=orthogonalEdgeStyle;rounded=0;orthogonalLoop=1;jettySize=auto;html=1;exitX=0.5;exitY=1;exitDx=0;exitDy=0;entryX=0.5;entryY=0;entryDx=0;entryDy=0;entryPerimeter=0;" edge="1" parent="WIyWlLk6GJQsqaUBKTNV-1" source="__YgoBIEPkl2ILwdyT14-2" target="__YgoBIEPkl2ILwdyT14-3">
          <mxGeometry relative="1" as="geometry" />
        </mxCell>
        <mxCell id="__YgoBIEPkl2ILwdyT14-13" style="edgeStyle=orthogonalEdgeStyle;rounded=0;orthogonalLoop=1;jettySize=auto;html=1;exitX=0;exitY=0.5;exitDx=0;exitDy=0;exitPerimeter=0;entryX=0.362;entryY=0;entryDx=0;entryDy=0;entryPerimeter=0;" edge="1" parent="WIyWlLk6GJQsqaUBKTNV-1" source="__YgoBIEPkl2ILwdyT14-3">
          <mxGeometry relative="1" as="geometry">
            <mxPoint x="187.05999999999995" y="510" as="targetPoint" />
          </mxGeometry>
        </mxCell>
        <mxCell id="__YgoBIEPkl2ILwdyT14-17" value="output bilangan &amp;amp; bilangan ganjil" style="shape=parallelogram;html=1;strokeWidth=2;perimeter=parallelogramPerimeter;whiteSpace=wrap;rounded=1;arcSize=12;size=0.23;" vertex="1" parent="WIyWlLk6GJQsqaUBKTNV-1">
          <mxGeometry x="70" y="510" width="250" height="60" as="geometry" />
        </mxCell>
        <mxCell id="__YgoBIEPkl2ILwdyT14-19" value="" style="endArrow=classic;html=1;rounded=0;exitX=0.46;exitY=1;exitDx=0;exitDy=0;exitPerimeter=0;" edge="1" parent="WIyWlLk6GJQsqaUBKTNV-1" source="__YgoBIEPkl2ILwdyT14-17">
          <mxGeometry width="50" height="50" relative="1" as="geometry">
            <mxPoint x="390" y="540" as="sourcePoint" />
            <mxPoint x="320" y="640" as="targetPoint" />
            <Array as="points">
              <mxPoint x="185" y="640" />
            </Array>
          </mxGeometry>
        </mxCell>
        <mxCell id="__YgoBIEPkl2ILwdyT14-20" value="" style="endArrow=classic;html=1;rounded=0;entryX=1.04;entryY=0.383;entryDx=0;entryDy=0;entryPerimeter=0;" edge="1" parent="WIyWlLk6GJQsqaUBKTNV-1" source="__YgoBIEPkl2ILwdyT14-5" target="__YgoBIEPkl2ILwdyT14-6">
          <mxGeometry width="50" height="50" relative="1" as="geometry">
            <mxPoint x="390" y="540" as="sourcePoint" />
            <mxPoint x="430" y="640" as="targetPoint" />
            <Array as="points">
              <mxPoint x="600" y="640" />
            </Array>
          </mxGeometry>
        </mxCell>
      </root>
    </mxGraphModel>
  </diagram>
</mxfile>
